<svg id="Layer_1" data-name="Layer 1" xmlns="http://www.w3.org/2000/svg" viewBox="0 0 20.29 17.5"><defs><style>.cls-1{fill-rule:evenodd;}</style></defs><path class="cls-1" d="M20.34,3.26A2.91,2.91,0,0,0,20,.87c-.73-.92-2.29-1-3.36-.79a7,7,0,0,0-4.8,4.53c1.77-.14,2.7.12,2.53,2.07a7.16,7.16,0,0,1-.95,2.57c-.53,1-1.52,2.93-2.83,1.53S9.46,7.12,9.19,5.51a21,21,0,0,0-.6-2.94A3,3,0,0,0,7,.61a3.11,3.11,0,0,0-2.26.45A40.89,40.89,0,0,0,.13,4.8v.11c.31.29.39.76.84.83,1.05.15,2.05-1,2.75.2a11.61,11.61,0,0,1,.83,2.29,34.55,34.55,0,0,1,.94,3.36c.51,2,1.13,5,2.87,5.78a3.82,3.82,0,0,0,2.91-.53,16.06,16.06,0,0,0,4.49-4.27A29,29,0,0,0,20.34,3.26Z" transform="translate(-0.13)"/></svg>